<svg width="547" height="130" viewBox="0 0 547 130" fill="none" xmlns="http://www.w3.org/2000/svg">
<g clip-path="url(#clip0_205_23)">
<path d="M80.33 52.81C80.3321 54.6502 79.7958 56.4507 78.7871 57.9898C77.7785 59.5289 76.3415 60.7393 74.6534 61.4717C72.9653 62.2041 71.0998 62.4267 69.2867 62.1119C67.4737 61.797 65.7924 60.9586 64.45 59.7L60.74 72.49L48.93 69.06C49.1841 68.2031 49.3121 67.3138 49.31 66.42C49.3196 64.1413 48.5037 61.9362 47.0132 60.2125C45.5228 58.4888 43.4586 57.3631 41.2024 57.0436C38.9462 56.724 36.6506 57.2323 34.7401 58.4744C32.8296 59.7164 31.4335 61.6082 30.81 63.8L19 60.37L29.64 23.68C29.832 23.0172 30.1527 22.3988 30.5839 21.8601C31.0151 21.3214 31.5483 20.873 32.1529 20.5405C32.7575 20.208 33.4217 19.998 34.1076 19.9224C34.7935 19.8468 35.4875 19.9071 36.15 20.1V20.1L72.86 30.75L69.15 43.53C69.7235 43.4209 70.3062 43.3673 70.89 43.37C73.3936 43.37 75.7947 44.3646 77.5651 46.1349C79.3354 47.9053 80.33 50.3064 80.33 52.81V52.81Z" fill="#ED4896"/>
<path d="M117.21 49.09L106.62 85.56C106.604 85.6181 106.565 85.6674 106.513 85.6973C106.46 85.7272 106.398 85.7354 106.34 85.72L94.25 82.21C94.25 82.38 94.25 82.56 94.25 82.74C94.1703 85.1918 93.1402 87.5165 91.3776 89.2226C89.6151 90.9287 87.2581 91.8826 84.805 91.8826C82.352 91.8826 79.995 90.9287 78.2325 89.2226C76.4699 87.5165 75.4398 85.1918 75.36 82.74C75.3582 80.7679 75.9814 78.8459 77.14 77.25L65 73.73C64.9715 73.722 64.9448 73.7083 64.9216 73.6898C64.8985 73.6712 64.8793 73.6482 64.8653 73.622C64.8513 73.5958 64.8427 73.5671 64.8401 73.5376C64.8375 73.508 64.8409 73.4782 64.85 73.45L68.21 61.87C69.0669 62.1241 69.9563 62.2521 70.85 62.25C73.125 62.2507 75.3237 61.4299 77.0416 59.9385C78.7595 58.4471 79.881 56.3855 80.1999 54.133C80.5187 51.8805 80.0134 49.5886 78.7769 47.6791C77.5403 45.7695 75.6558 44.3707 73.47 43.74L76.84 32.15C76.8564 32.0919 76.8949 32.0426 76.9473 32.0127C76.9997 31.9828 77.0617 31.9746 77.12 31.99L113.59 42.58C114.256 42.7678 114.879 43.0855 115.422 43.5148C115.965 43.9442 116.418 44.4768 116.755 45.0818C117.091 45.6869 117.304 46.3525 117.383 47.0404C117.461 47.7283 117.402 48.4249 117.21 49.09V49.09Z" fill="#44E6EE"/>
<path d="M59.87 75.49L56.44 87.31C55.5865 87.0559 54.7005 86.9279 53.81 86.93C51.5394 86.9327 49.3458 87.7538 47.6315 89.2427C45.9171 90.7316 44.7969 92.7885 44.4761 95.0364C44.1553 97.2843 44.6555 99.5724 45.885 101.481C47.1144 103.39 48.9908 104.792 51.17 105.43L47.73 117.29L11 106.64C9.66226 106.248 8.53442 105.341 7.86345 104.119C7.19247 102.897 7.03303 101.459 7.42002 100.12L18.13 63.37L30.44 67C30.44 66.83 30.44 66.65 30.44 66.47C30.438 64.9821 30.7876 63.5148 31.4605 62.1877C32.1334 60.8606 33.1105 59.7114 34.312 58.8338C35.5135 57.9562 36.9055 57.375 38.3744 57.1377C39.8432 56.9004 41.3474 57.0136 42.7641 57.4682C44.1809 57.9228 45.4702 58.7059 46.5267 59.7535C47.5833 60.8012 48.3773 62.0837 48.8438 63.4966C49.3104 64.9094 49.4365 66.4126 49.2116 67.8834C48.9868 69.3542 48.4174 70.7511 47.55 71.96L59.87 75.49Z" fill="#D7F436"/>
<path d="M105.68 88.8L95 125.49C94.61 126.829 93.7041 127.959 92.4814 128.63C91.2586 129.302 89.8193 129.46 88.48 129.07L51.83 118.42L55.54 105.65C54.9698 105.759 54.3905 105.813 53.81 105.81C52.2714 105.812 50.7557 105.438 49.3947 104.72C48.0338 104.002 46.8689 102.963 46.0015 101.692C45.1341 100.421 44.5905 98.9576 44.418 97.4287C44.2454 95.8998 44.4492 94.3519 45.0115 92.9197C45.5739 91.4876 46.4777 90.2146 47.6445 89.2116C48.8112 88.2086 50.2054 87.506 51.7057 87.1649C53.206 86.8238 54.767 86.8546 56.2527 87.2546C57.7384 87.6546 59.1038 88.4117 60.23 89.46L63.94 76.69L75.75 80.12C75.4959 80.97 75.3678 81.8528 75.37 82.74C75.3644 85.0167 76.1818 87.2187 77.6716 88.9403C79.1614 90.6619 81.2232 91.7871 83.4771 92.1085C85.731 92.43 88.0251 91.9261 89.9368 90.6896C91.8484 89.4531 93.2489 87.5675 93.88 85.38L105.68 88.8Z" fill="#FCCC00"/>
<path d="M10.5301 52.74H10.3901L0.740056 51C0.625259 50.9842 0.514785 50.9455 0.415119 50.8864C0.315454 50.8273 0.228605 50.7488 0.159671 50.6557C0.0907379 50.5625 0.0411096 50.4565 0.0136998 50.344C-0.01371 50.2314 -0.0183488 50.1144 5.5749e-05 50C5.5749e-05 50 5.5749e-05 49.95 5.5749e-05 49.93C0.0168949 49.8167 0.0564625 49.708 0.116382 49.6103C0.176301 49.5127 0.255336 49.4282 0.348738 49.3619C0.44214 49.2956 0.547983 49.2488 0.659909 49.2244C0.771835 49.2 0.887533 49.1985 1.00006 49.22V49.22L10.7101 51C10.8275 51.0086 10.942 51.0407 11.0468 51.0943C11.1517 51.1479 11.2446 51.2221 11.3203 51.3123C11.3959 51.4026 11.4527 51.5071 11.4872 51.6196C11.5217 51.7322 11.5333 51.8506 11.5213 51.9677C11.5092 52.0848 11.4738 52.1984 11.4171 52.3015C11.3604 52.4047 11.2835 52.4955 11.1911 52.5684C11.0987 52.6414 10.9925 52.695 10.879 52.7262C10.7654 52.7574 10.6468 52.7655 10.5301 52.75V52.74Z" fill="#FCCC00"/>
<path d="M51.15 11.28C50.9192 11.2621 50.7045 11.1549 50.5514 10.9813C50.3983 10.8077 50.3189 10.5812 50.33 10.35L50.93 0.82C50.9627 0.602179 51.0759 0.404544 51.2473 0.266131C51.4186 0.127719 51.6356 0.0585953 51.8555 0.0724132C52.0753 0.0862311 52.2819 0.181986 52.4346 0.340764C52.5873 0.499542 52.6748 0.709798 52.68 0.93L52 10.51C51.9738 10.7188 51.8736 10.9112 51.7177 11.0525C51.5617 11.1938 51.3603 11.2745 51.15 11.28Z" fill="#ED4896"/>
<path d="M120.57 31.88C120.371 31.8763 120.178 31.805 120.025 31.6777C119.871 31.5505 119.765 31.3749 119.725 31.1796C119.684 30.9844 119.711 30.7811 119.801 30.6031C119.891 30.4251 120.039 30.283 120.22 30.2L127.07 27.2C127.269 27.1108 127.495 27.0989 127.702 27.1666C127.91 27.2342 128.085 27.3766 128.193 27.5661C128.302 27.7556 128.336 27.9786 128.289 28.1918C128.242 28.4051 128.118 28.5933 127.94 28.72L127.77 28.8L120.89 31.8C120.787 31.8409 120.68 31.8678 120.57 31.88V31.88Z" fill="#D7F436"/>
<path d="M15.79 18.41C16.7786 18.41 17.58 17.6086 17.58 16.62C17.58 15.6314 16.7786 14.83 15.79 14.83C14.8014 14.83 14 15.6314 14 16.62C14 17.6086 14.8014 18.41 15.79 18.41Z" fill="#44E6EE"/>
<path d="M89.9701 17.54C90.9586 17.54 91.7601 16.7386 91.7601 15.75C91.7601 14.7614 90.9586 13.96 89.9701 13.96C88.9815 13.96 88.1801 14.7614 88.1801 15.75C88.1801 16.7386 88.9815 17.54 89.9701 17.54Z" fill="#44E6EE"/>
<path d="M170.9 43.47L169.55 86.75C169.437 90.5346 168.62 94.2649 167.14 97.75C165.593 101.333 163 104.366 159.7 106.45C156.55 108.45 152.49 109.45 147.6 109.45C147.22 109.45 146.83 109.45 146.45 109.45C142.235 109.431 138.098 108.311 134.45 106.2C131.387 104.357 128.858 101.748 127.11 98.63C125.533 95.8197 124.581 92.702 124.32 89.49L124 86.72L136 87.11L136.26 89.18C136.46 90.567 136.958 91.8942 137.72 93.07C138.568 94.4296 139.744 95.5542 141.14 96.34C142.993 97.3005 145.053 97.7916 147.14 97.77C149.043 97.9316 150.957 97.6332 152.72 96.9C153.889 96.3602 154.88 95.5004 155.58 94.42C156.318 93.1824 156.845 91.8306 157.14 90.42C157.461 88.9803 157.648 87.5141 157.7 86.04L159.06 43.04L170.9 43.47Z" fill="#231F20"/>
<path d="M224.83 107.7L213.04 108.19L212.88 104.55C212.171 105.19 211.419 105.781 210.63 106.32C207.54 108.358 203.922 109.45 200.22 109.46H199.32C196.106 109.463 192.934 108.738 190.04 107.34C186.688 105.713 183.861 103.176 181.88 100.02C179.658 96.3648 178.462 92.1777 178.42 87.9L177.2 58.64L189 58.15L190.2 87.21C190.172 90.3046 191.369 93.2847 193.53 95.5C194.532 96.472 195.73 97.2185 197.045 97.6894C198.359 98.1602 199.759 98.3446 201.15 98.23C203.171 98.1945 205.143 97.6029 206.85 96.52C208.532 95.4907 209.912 94.0348 210.85 92.3C211.825 90.4254 212.265 88.3182 212.12 86.21L210.92 57.21L222.72 56.72L224.83 107.7Z" fill="#231F20"/>
<path d="M306.12 78.38V108.67H294.33V78.56C294.485 75.7493 293.542 72.9883 291.7 70.86C290.904 69.9637 289.921 69.2522 288.82 68.7755C287.72 68.2987 286.529 68.0682 285.33 68.1C282.695 68.0499 280.147 69.0418 278.24 70.86C276.3 72.65 275.32 75.21 275.32 78.64V108.64H263.53V78.56C263.685 75.7493 262.742 72.9883 260.9 70.86C260.107 69.9652 259.127 69.2546 258.03 68.7779C256.933 68.3011 255.746 68.0698 254.55 68.1C251.91 68.0511 249.356 69.0424 247.44 70.86C245.5 72.65 244.55 75.21 244.55 78.64V108.64H232.73V57.64H244.55V60.71C244.88 60.43 245.27 60.15 245.63 59.87C248.31 57.87 251.84 56.87 256.11 56.87C259.587 56.8582 262.995 57.8325 265.94 59.68C267.867 60.9083 269.56 62.4692 270.94 64.29C271.22 63.93 271.53 63.6 271.84 63.24C273.513 61.4063 275.518 59.9064 277.75 58.82C280.509 57.4726 283.55 56.804 286.62 56.87C289.984 56.8666 293.284 57.7867 296.16 59.53C299.183 61.3435 301.666 63.9331 303.35 67.03C305.263 70.5012 306.218 74.4181 306.12 78.38V78.38Z" fill="#231F20"/>
<path d="M362.35 71C360.524 66.8945 357.563 63.3958 353.817 60.9156C350.07 58.4355 345.693 57.077 341.2 57C337.398 56.7312 333.588 57.4188 330.12 59C329.029 59.5416 327.985 60.1738 327 60.89L327.95 38.68L316.16 38.2L313.16 107.55L324.98 108.06L325.13 104.3C326.075 105.081 327.078 105.79 328.13 106.42C331.441 108.308 335.17 109.339 338.98 109.42C339.42 109.42 339.82 109.42 340.26 109.42C344.428 109.482 348.538 108.448 352.18 106.42C355.98 104.222 359.117 101.041 361.26 97.21C363.423 93.2117 364.645 88.7728 364.834 84.231C365.023 79.6891 364.173 75.1641 362.35 71ZM351 91.3C349.86 93.4777 348.127 95.2876 346 96.52C343.963 97.6956 341.641 98.2873 339.29 98.23H338.48C335.898 98.1973 333.385 97.3966 331.26 95.93C329.338 94.5049 327.86 92.5628 327 90.33C326.033 87.8538 325.591 85.2038 325.701 82.5478C325.811 79.8919 326.472 77.2877 327.64 74.9C328.737 72.7748 330.402 70.9955 332.45 69.76C334.446 68.5844 336.735 67.9985 339.05 68.07H339.84C342.472 68.1053 345.036 68.9157 347.21 70.4C349.182 71.8204 350.722 73.7586 351.66 76C352.679 78.4442 353.137 81.0856 353 83.73C352.914 86.372 352.23 88.9601 351 91.3V91.3Z" fill="#231F20"/>
<path d="M383.12 39.25H371.3V108.68H383.12V39.25Z" fill="#231F20"/>
<path d="M428 88.33L427.54 89.72C426.835 91.7727 425.616 93.6109 424 95.06C422.181 96.6454 419.926 97.6456 417.53 97.93C415.165 98.3994 412.718 98.2303 410.44 97.44C408.362 96.7089 406.511 95.4472 405.07 93.78C404.174 92.7573 403.411 91.6249 402.8 90.41L440.32 84.11L439.45 79C438.742 74.4965 436.973 70.2258 434.29 66.54C431.692 62.9802 428.158 60.2109 424.08 58.54C419.636 56.9323 414.851 56.4981 410.19 57.2793C405.529 58.0606 401.148 60.031 397.47 63C394.137 65.8933 391.675 69.6571 390.36 73.87C389.008 78.2253 388.727 82.8427 389.54 87.33C390.238 91.8554 392.068 96.1311 394.86 99.76C397.563 103.315 401.192 106.059 405.35 107.69C408.214 108.825 411.27 109.398 414.35 109.38C416.006 109.369 417.658 109.222 419.29 108.94C425.19 107.94 429.88 105.67 433.23 102.14C436.517 98.7023 438.751 94.3963 439.67 89.73L440.41 86.25L428 88.33ZM425.89 75L401.13 79.15C401.511 76.9253 402.405 74.8198 403.74 73C405.56 70.46 408.27 68.93 412 68.31C412.933 68.1558 413.875 68.0723 414.82 68.06C417.175 68.0186 419.484 68.7182 421.42 70.06C423.277 71.3335 424.808 73.0257 425.89 75V75Z" fill="#231F20"/>
</g>
<defs>
<clipPath id="clip0_205_23">
<rect width="546.18" height="129.28" fill="white"/>
</clipPath>
</defs>
</svg>
